<svg
   xmlns="http://www.w3.org/2000/svg"
   class="bi" width="1em" height="1em" viewBox="0 0 17 17" fill="#ffffff">
  <g transform="translate(0,-280.06665)">
    <path
        fill-rule="evenodd" clip-rule="evenodd"
       d="m 8.4473539,280.62757 c -4.4368307,0 -8.03503428,3.59772 -8.03503428,8.03602 0,3.54987 2.30227798,6.562 5.49547348,7.6251 0.4020478,0.0736 0.5485615,-0.17464 0.5485615,-0.38775 0,-0.19091 -0.00683,-0.69607 -0.010902,-1.36647 -2.2351876,0.48542 -2.7067929,-1.07738 -2.7067929,-1.07738 -0.3655417,-0.92842 -0.8923979,-1.17557 -0.8923979,-1.17557 -0.7296051,-0.49823 0.055247,-0.48837 0.055247,-0.48837 0.8065611,0.0567 1.2308077,0.82827 1.2308077,0.82827 0.716779,1.22784 1.8809916,0.87315 2.3387842,0.66744 0.073007,-0.51895 0.2806922,-0.87315 0.510082,-1.07392 -1.7843022,-0.20326 -3.6603603,-0.89241 -3.6603603,-3.97166 0,-0.87758 0.3132515,-1.59436 0.8272805,-2.15625 -0.082881,-0.20323 -0.3586361,-1.02015 0.078922,-2.12664 0,0 0.6743562,-0.21608 2.2095363,0.82332 0.6408095,-0.17809 1.3284847,-0.26688 2.0117193,-0.27033 0.6827408,0.003 1.3699219,0.0924 2.0117195,0.27033 1.534193,-1.0394 2.207562,-0.82332 2.207562,-0.82332 0.438551,1.10649 0.162792,1.92341 0.0804,2.12664 0.515017,0.56189 0.825801,1.27867 0.825801,2.15625 0,3.08716 -1.879019,3.76642 -3.6687466,3.96525 0.2880926,0.24814 0.5451076,0.73847 0.5451076,1.48831 0,1.07393 -0.0099,1.94068 -0.0099,2.2041 0,0.21508 0.145031,0.4652 0.552505,0.38675 3.190736,-1.06506 5.491041,-4.07473 5.491041,-7.6241 0,-4.4383 -3.598205,-8.03602 -8.0365159,-8.03602" />
  </g>
</svg>
