<?xml version="1.0" encoding="UTF-8" standalone="no"?>
<svg
        xmlns:dc="http://purl.org/dc/elements/1.1/"
        xmlns:cc="http://creativecommons.org/ns#"
        xmlns:rdf="http://www.w3.org/1999/02/22-rdf-syntax-ns#"
        xmlns="http://www.w3.org/2000/svg"
        xmlns:xlink="http://www.w3.org/1999/xlink"
        xmlns:sodipodi="http://sodipodi.sourceforge.net/DTD/sodipodi-0.dtd"
        xmlns:inkscape="http://www.inkscape.org/namespaces/inkscape"
        width="65.950317"
        height="63.837887"
        id="svg3057"
        version="1.1"
        inkscape:version="1.0 (1.0+r73+1)"
        sodipodi:docname="py2only.svg">
  <defs
     id="defs3059">
    <linearGradient
       id="linearGradient3878">
      <stop
         style="stop-color:#000000;stop-opacity:1;"
         offset="0"
         id="stop3880" />
      <stop
         style="stop-color:#000000;stop-opacity:1;"
         offset="1"
         id="stop3882" />
    </linearGradient>
    <linearGradient
       id="linearGradient3870">
      <stop
         style="stop-color:#000000;stop-opacity:1;"
         offset="0"
         id="stop3872" />
      <stop
         style="stop-color:#000000;stop-opacity:1;"
         offset="1"
         id="stop3874" />
    </linearGradient>
    <linearGradient
       id="linearGradient3858">
      <stop
         style="stop-color:#000000;stop-opacity:1;"
         offset="0"
         id="stop3868" />
      <stop
         style="stop-color:#000000;stop-opacity:1;"
         offset="1"
         id="stop3862" />
    </linearGradient>
    <linearGradient
       id="linearGradient3839">
      <stop
         style="stop-color:#73d216;stop-opacity:0;"
         offset="0"
         id="stop3841" />
      <stop
         style="stop-color:#73d216;stop-opacity:0;"
         offset="1"
         id="stop3843" />
    </linearGradient>
    <linearGradient
       inkscape:collect="always"
       xlink:href="#linearGradient3839"
       id="linearGradient3856"
       gradientUnits="userSpaceOnUse"
       x1="46.097534"
       y1="44.755539"
       x2="8.6358585"
       y2="30.117304" />
    <linearGradient
       inkscape:collect="always"
       xlink:href="#linearGradient3858"
       id="linearGradient3864"
       x1="9.7877102"
       y1="39.660793"
       x2="47.374119"
       y2="39.660793"
       gradientUnits="userSpaceOnUse" />
    <linearGradient
       inkscape:collect="always"
       xlink:href="#linearGradient3870"
       id="linearGradient3876"
       x1="9.9233065"
       y1="34.257633"
       x2="46.865742"
       y2="34.257633"
       gradientUnits="userSpaceOnUse" />
    <linearGradient
       inkscape:collect="always"
       xlink:href="#linearGradient3878"
       id="linearGradient3884"
       x1="28.433661"
       y1="48.904175"
       x2="29.433661"
       y2="48.904175"
       gradientUnits="userSpaceOnUse" />
    <radialGradient
       inkscape:collect="always"
       xlink:href="#linearGradient3887"
       id="radialGradient3893"
       cx="32.5"
       cy="52"
       fx="32.5"
       fy="52"
       r="28.5"
       gradientTransform="matrix(0.96428571,-4.7464116e-8,3.0929704e-8,0.24561404,1.1607127,39.228072)"
       gradientUnits="userSpaceOnUse" />
    <linearGradient
       inkscape:collect="always"
       id="linearGradient3887">
      <stop
         style="stop-color:#2e3436;stop-opacity:1;"
         offset="0"
         id="stop3889" />
      <stop
         style="stop-color:#2e3436;stop-opacity:0;"
         offset="1"
         id="stop3891" />
    </linearGradient>
    <linearGradient
       gradientTransform="matrix(0.8782269,0,0,0.88301047,5.1375817,6.0680873)"
       inkscape:collect="always"
       xlink:href="#linearGradient3863"
       id="linearGradient3869"
       x1="22"
       y1="35"
       x2="20"
       y2="15"
       gradientUnits="userSpaceOnUse" />
    <linearGradient
       inkscape:collect="always"
       id="linearGradient3863">
      <stop
         style="stop-color:#271903;stop-opacity:1"
         offset="0"
         id="stop3865" />
      <stop
         style="stop-color:#c17d11;stop-opacity:1"
         offset="1"
         id="stop3867" />
    </linearGradient>
    <linearGradient
       gradientTransform="matrix(0.8782269,0,0,0.88301047,5.1375817,6.0680873)"
       inkscape:collect="always"
       xlink:href="#linearGradient3873"
       id="linearGradient3879"
       x1="39"
       y1="27"
       x2="38"
       y2="17"
       gradientUnits="userSpaceOnUse" />
    <linearGradient
       inkscape:collect="always"
       id="linearGradient3873">
      <stop
         style="stop-color:#8f5902;stop-opacity:1"
         offset="0"
         id="stop3875" />
      <stop
         style="stop-color:#e9b96e;stop-opacity:1"
         offset="1"
         id="stop3877" />
    </linearGradient>
    <linearGradient
       gradientTransform="matrix(0.8782269,0,0,0.88301047,5.1375817,6.0680873)"
       inkscape:collect="always"
       xlink:href="#linearGradient3827"
       id="linearGradient3833"
       x1="22.181818"
       y1="24.545454"
       x2="23.272728"
       y2="33.772724"
       gradientUnits="userSpaceOnUse" />
    <linearGradient
       inkscape:collect="always"
       id="linearGradient3827">
      <stop
         style="stop-color:#e9b96e;stop-opacity:1"
         offset="0"
         id="stop3829" />
      <stop
         style="stop-color:#c17d11;stop-opacity:1"
         offset="1"
         id="stop3831" />
    </linearGradient>
    <linearGradient
       gradientTransform="matrix(0.8782269,0,0,0.88301047,5.1375817,6.0680873)"
       inkscape:collect="always"
       xlink:href="#linearGradient3853"
       id="linearGradient3859"
       x1="51.5"
       y1="32.5"
       x2="45.5"
       y2="24.636364"
       gradientUnits="userSpaceOnUse" />
    <linearGradient
       inkscape:collect="always"
       id="linearGradient3853">
      <stop
         style="stop-color:#8f5902;stop-opacity:1"
         offset="0"
         id="stop3855" />
      <stop
         style="stop-color:#c17d11;stop-opacity:1"
         offset="1"
         id="stop3857" />
    </linearGradient>
    <linearGradient
       id="linearGradient3864-3">
      <stop
         style="stop-color:#71b2f8;stop-opacity:1;"
         offset="0"
         id="stop3866" />
      <stop
         style="stop-color:#002795;stop-opacity:1;"
         offset="1"
         id="stop3868-6" />
    </linearGradient>
    <linearGradient
       id="linearGradient3682">
      <stop
         id="stop3684"
         offset="0"
         style="stop-color:#ff6d0f;stop-opacity:1;" />
      <stop
         id="stop3686"
         offset="1"
         style="stop-color:#ff1000;stop-opacity:1;" />
    </linearGradient>
    <inkscape:perspective
       id="perspective3148"
       inkscape:persp3d-origin="32 : 21.171216 : 1"
       inkscape:vp_z="64 : 31.837886 : 1"
       inkscape:vp_y="0 : 1000 : 0"
       inkscape:vp_x="0 : 31.837886 : 1"
       sodipodi:type="inkscape:persp3d" />
    <linearGradient
       id="linearGradient3864-9">
      <stop
         id="stop3866-1"
         offset="0"
         style="stop-color:#204a87;stop-opacity:1" />
      <stop
         id="stop3868-1"
         offset="1"
         style="stop-color:#729fcf;stop-opacity:1" />
    </linearGradient>
    <linearGradient
       id="linearGradient3682-0">
      <stop
         style="stop-color:#a40000;stop-opacity:1"
         offset="0"
         id="stop3684-0" />
      <stop
         style="stop-color:#ef2929;stop-opacity:1"
         offset="1"
         id="stop3686-0" />
    </linearGradient>
    <inkscape:perspective
       sodipodi:type="inkscape:persp3d"
       inkscape:vp_x="0 : 31.837886 : 1"
       inkscape:vp_y="0 : 1000 : 0"
       inkscape:vp_z="64 : 31.837886 : 1"
       inkscape:persp3d-origin="32 : 21.171216 : 1"
       id="perspective3148-5" />
    <radialGradient
       inkscape:collect="always"
       xlink:href="#linearGradient3682-0-6"
       id="radialGradient3817-5-3"
       gradientUnits="userSpaceOnUse"
       gradientTransform="matrix(1.2361257,0.30001695,-0.83232803,3.3883821,-499.9452,-167.33108)"
       cx="270.58316"
       cy="33.899986"
       fx="270.58316"
       fy="33.899986"
       r="19.571428" />
    <linearGradient
       id="linearGradient3682-0-6">
      <stop
         style="stop-color:#ff390f;stop-opacity:1"
         offset="0"
         id="stop3684-0-7" />
      <stop
         style="stop-color:#ff1000;stop-opacity:1;"
         offset="1"
         id="stop3686-0-5" />
    </linearGradient>
    <radialGradient
       cx="15.115"
       cy="63.965"
       r="12.289"
       fx="15.115"
       fy="63.965"
       id="rg1"
       xlink:href="#lg4"
       gradientUnits="userSpaceOnUse"
       gradientTransform="matrix(1.2138546,0,0,0.41859319,77.885908,25.707108)" />
    <linearGradient
       id="lg4">
      <stop
         stop-color="#000"
         offset="0"
         id="stop17" />
      <stop
         stop-color="#000"
         stop-opacity="0"
         offset="1"
         id="stop19" />
    </linearGradient>
    <linearGradient
       x1="119.191"
       y1="89.129997"
       x2="116.965"
       y2="169.27901"
       id="lg8"
       xlink:href="#lg3"
       gradientUnits="userSpaceOnUse"
       gradientTransform="matrix(0.37897114,0,0,0.37897114,-12.224488,-11.468004)" />
    <linearGradient
       id="lg3">
      <stop
         stop-color="#ffe253"
         offset="0"
         id="stop12" />
      <stop
         stop-color="#ffca1c"
         offset="1"
         id="stop14" />
    </linearGradient>
    <linearGradient
       x1="94.693001"
       y1="112.511"
       x2="94.693001"
       y2="64.053001"
       id="lg7"
       xlink:href="#lg2"
       gradientUnits="userSpaceOnUse"
       gradientTransform="matrix(0.37897114,0,0,0.37897114,-1.4160924,-0.70362286)" />
    <linearGradient
       id="lg2">
      <stop
         stop-color="#fff"
         offset="0"
         id="stop7" />
      <stop
         stop-color="#fff"
         stop-opacity="0.165"
         offset="1"
         id="stop9" />
    </linearGradient>
    <linearGradient
       x1="59.728001"
       y1="102"
       x2="142.62"
       y2="102"
       id="lg6"
       xlink:href="#lg1"
       gradientUnits="userSpaceOnUse"
       gradientTransform="matrix(0.37897114,0,0,0.37897114,-13.284474,-12.983339)" />
    <linearGradient
       id="lg1">
      <stop
         stop-color="#3778ae"
         offset="0"
         id="stop2" />
      <stop
         stop-color="#366c99"
         offset="1"
         id="stop4" />
    </linearGradient>
    <linearGradient
       x1="94.693001"
       y1="112.511"
       x2="94.693001"
       y2="64.053001"
       id="lg5"
       xlink:href="#lg2"
       gradientUnits="userSpaceOnUse"
       gradientTransform="matrix(0.37897114,0,0,0.37897114,-13.284474,-12.983339)" />
  </defs>
  <sodipodi:namedview
     units="px"
     fit-margin-bottom="2"
     fit-margin-right="2"
     fit-margin-left="2"
     fit-margin-top="2"
     id="base"
     pagecolor="#ffffff"
     bordercolor="#666666"
     borderopacity="1.0"
     inkscape:pageopacity="0.0"
     inkscape:pageshadow="2"
     inkscape:zoom="12.281108"
     inkscape:cx="32.975159"
     inkscape:cy="31.918943"
     inkscape:current-layer="layer1"
     showgrid="true"
     inkscape:document-units="px"
     inkscape:grid-bbox="true"
     inkscape:window-width="1920"
     inkscape:window-height="1023"
     inkscape:window-x="0"
     inkscape:window-y="0"
     inkscape:window-maximized="1"
     inkscape:snap-global="true"
     inkscape:document-rotation="0"
     showguides="false">
    <inkscape:grid
       originy="-0.08106"
       originx="-0.14262"
       type="xygrid"
       id="grid3015"
       empspacing="2"
       visible="true"
       enabled="true"
       snapvisiblegridlinesonly="true" />
  </sodipodi:namedview>
  <metadata
     id="metadata3062">
    <rdf:RDF>
      <cc:Work
         rdf:about="">
        <dc:format>image/svg+xml</dc:format>
        <dc:type
           rdf:resource="http://purl.org/dc/dcmitype/StillImage" />
        <dc:title></dc:title>
      </cc:Work>
    </rdf:RDF>
  </metadata>
  <g
     transform="translate(-0.14261818,-0.08105659)"
     id="layer1"
     inkscape:label="Layer 1"
     inkscape:groupmode="layer"
     style="display:inline">
    <path
       id="path961"
       d="m 1.9999982,1.9999966 4,4 4,-4 3.9999998,4 4,-4 4,4 4,-4 4,4 4,-4 4,4 4,-4 4,4 4,-4 4,4 4,-4 4,4 -4,4 4,4.0000004 -4,4 4,4 -4,4 4,4 -4,4 4,4 -4,4 4,4 -4,4 4,4 -4,4 v 4 l -4,-4 -4,4 -4,-4 -4,4 -4,-4 -4,4 -4,-4 -4,4 -4,-4 -4,4 -4,-4 -3.9999998,4 -4,-4 h -4 l 4,-4 -4,-4 4,-4 -4,-4 4,-4 -4,-4 4,-4 -4,-4 4,-4 -4,-4 4,-4 -4,-4.0000004 z"
       style="fill:#ff0000;stroke:none;stroke-width:1px;stroke-linecap:butt;stroke-linejoin:miter;stroke-opacity:1" />
    <path
       d="m 45.77543,12.507761 c -0.872895,0 -1.776643,0.210899 -2.714843,0.591797 -0.935148,0.379657 -1.905488,0.924849 -2.923828,1.628906 a 1.0736676,1.0736676 0 0 0 -0.462891,0.882813 v 4.183594 a 1.0736676,1.0736676 0 0 0 1.818359,0.773437 c 0.903282,-0.86815 1.732047,-1.492864 2.449219,-1.880859 0.722007,-0.386175 1.340834,-0.544922 1.88086,-0.544922 0.719759,0 1.167053,0.239507 1.683593,1.042969 a 1.0736676,1.0736676 0 0 0 0.002,0.0059 c 0.525205,0.807212 0.826172,1.912433 0.826172,3.392578 0,0.88658 -0.137035,1.799106 -0.419922,2.748047 a 1.0736676,1.0736676 0 0 0 0,0.0039 c -0.271707,0.923123 -0.780843,2.130491 -1.53125,3.582032 a 1.0736676,1.0736676 0 0 0 -0.002,0.0039 c -0.375981,0.736042 -1.375314,2.520354 -2.953125,5.263672 -1.573375,2.735741 -2.818081,4.918623 -3.734375,6.550781 a 1.0736676,1.0736676 0 0 0 -0.138672,0.525391 v 3.486328 a 1.0736676,1.0736676 0 0 0 1.074219,1.074218 h 11.292969 a 1.0736676,1.0736676 0 0 0 1.074219,-1.074218 V 41.261697 A 1.0736676,1.0736676 0 0 0 51.921915,40.187478 H 45.36918 c 1.405236,-2.47027 2.743694,-4.825078 3.59375,-6.332031 a 1.0736676,1.0736676 0 0 0 0.002,-0.002 c 1.065913,-1.903375 1.680187,-3.023306 1.914016,-3.490217 a 1.0736676,1.0736676 0 0 0 0.01172,-0.02148 c 0.7436,-1.575413 1.267344,-2.960189 1.5625,-4.185547 0.299249,-1.222945 0.447265,-2.50502 0.447265,-3.839844 0,-2.799931 -0.581176,-5.151207 -1.835937,-6.966797 -1.2556,-1.816806 -3.138603,-2.841797 -5.289063,-2.841797 z m -33.697265,0.552735 a 1.0736676,1.0736676 0 0 0 -1.074219,1.074218 v 30.613282 a 1.0736676,1.0736676 0 0 0 1.074219,1.074218 h 2.40625 a 1.0736676,1.0736676 0 0 0 1.074219,-1.074218 V 33.51948 h 1.951172 c 2.270289,0 4.216655,-0.987066 5.410156,-2.800781 1.095314,-1.653557 1.559052,-3.938293 1.642578,-6.697266 l 4.865234,20.363281 -0.33789,1.478516 a 1.0736676,1.0736676 0 0 0 -0.002,0.0059 c -0.395795,1.790125 -0.848145,2.966104 -0.949218,3.115235 -0.16554,0.24425 -0.204073,0.265624 -0.515625,0.265625 h -1.28711 a 1.0736676,1.0736676 0 0 0 -1.074218,1.074219 v 3.158203 a 1.0736676,1.0736676 0 0 0 1.074218,1.074218 h 1.751953 c 1.287165,0 2.484261,-0.640681 3.234376,-1.705078 0.802664,-1.138965 1.349049,-2.949559 1.978515,-5.726562 v -0.0039 l 5.861328,-25.09375 a 1.0736676,1.0736676 0 0 0 -1.044922,-1.318359 h -2.324218 a 1.0736676,1.0736676 0 0 0 -1.044922,0.832031 l -3.123047,13.458985 -3.125,-13.458985 a 1.0736676,1.0736676 0 0 0 -1.044876,-0.832079 h -2.322266 a 1.0736676,1.0736676 0 0 0 -0.720703,0.279297 c -0.213592,-2.004151 -0.620548,-3.787093 -1.490234,-5.101562 l -0.002,-0.002 c -1.191776,-1.825386 -3.138021,-2.824172 -5.410109,-2.824172 z m 3.480469,5.552734 h 1.951172 c 0.801184,0 1.2231,0.234103 1.68164,0.982422 0.458269,0.747878 0.757813,1.970912 0.757813,3.683594 0,1.727231 -0.300848,2.959328 -0.757813,3.705078 -0.45854,0.748319 -0.880456,0.982422 -1.68164,0.982422 h -1.951172 z"
       style="font-style:normal;font-weight:normal;font-size:32.0058px;line-height:1.25;font-family:sans-serif;letter-spacing:0px;word-spacing:0px;fill:#ffffff;fill-opacity:1;stroke:none;stroke-width:0.800144"
       id="path967" />
  </g>
</svg>
