<?xml version="1.0" encoding="UTF-8" standalone="no"?>
<svg
        xmlns:dc="http://purl.org/dc/elements/1.1/"
        xmlns:cc="http://creativecommons.org/ns#"
        xmlns:rdf="http://www.w3.org/1999/02/22-rdf-syntax-ns#"
        xmlns="http://www.w3.org/2000/svg"
        xmlns:xlink="http://www.w3.org/1999/xlink"
        id="svg8"
        version="1.1"
        viewBox="0 0 16.933333 16.933334"
        height="64"
        width="64">
  <defs
     id="defs2">
    <linearGradient
       id="linearGradient848">
      <stop
         id="stop844"
         offset="0"
         style="stop-color:#00aad4;stop-opacity:1;" />
      <stop
         id="stop846"
         offset="1"
         style="stop-color:#00aad4;stop-opacity:0;" />
    </linearGradient>
    <linearGradient
       id="linearGradient840">
      <stop
         id="stop836"
         offset="0"
         style="stop-color:#ffffff;stop-opacity:1" />
      <stop
         id="stop838"
         offset="1"
         style="stop-color:#aaeeff;stop-opacity:1" />
    </linearGradient>
    <linearGradient
       id="linearGradient953">
      <stop
         id="stop949"
         offset="0"
         style="stop-color:#ffffff;stop-opacity:1;" />
      <stop
         id="stop951"
         offset="1"
         style="stop-color:#ffffff;stop-opacity:0;" />
    </linearGradient>
    <linearGradient
       id="linearGradient1293">
      <stop
         id="stop1289"
         offset="0"
         style="stop-color:#800000;stop-opacity:1;" />
      <stop
         id="stop1291"
         offset="1"
         style="stop-color:#800000;stop-opacity:0;" />
    </linearGradient>
    <linearGradient
       id="linearGradient1221">
      <stop
         id="stop1217"
         offset="0"
         style="stop-color:#000080;stop-opacity:1;" />
      <stop
         id="stop1219"
         offset="1"
         style="stop-color:#000080;stop-opacity:0;" />
    </linearGradient>
    <linearGradient
       gradientTransform="scale(3.7795275)"
       gradientUnits="userSpaceOnUse"
       y2="169.57704"
       x2="145.46936"
       y1="179.16418"
       x1="152.29611"
       id="linearGradient1223"
       xlink:href="#linearGradient1221" />
    <filter
       height="1.0954777"
       y="-0.047738839"
       width="1.0965281"
       x="-0.048264034"
       id="filter1253"
       style="color-interpolation-filters:sRGB">
      <feGaussianBlur
         id="feGaussianBlur1255"
         stdDeviation="0.2070704" />
    </filter>
    <linearGradient
       gradientUnits="userSpaceOnUse"
       y2="162.00493"
       x2="143.13841"
       y1="184.00041"
       x1="150.82004"
       id="linearGradient1295"
       xlink:href="#linearGradient1293" />
    <radialGradient
       gradientTransform="matrix(0.70958212,0.00809618,-0.0090368,0.79202152,3.3373445,58.591467)"
       gradientUnits="userSpaceOnUse"
       r="2.9068167"
       fy="282.1647"
       fx="2.213999"
       cy="282.1647"
       cx="2.213999"
       id="radialGradient955"
       xlink:href="#linearGradient953" />
    <filter
       height="1.0365968"
       y="-0.018298415"
       width="1.0697258"
       x="-0.034862893"
       id="filter878"
       style="color-interpolation-filters:sRGB">
      <feGaussianBlur
         id="feGaussianBlur880"
         stdDeviation="0.11586915" />
    </filter>
    <radialGradient
       gradientUnits="userSpaceOnUse"
       gradientTransform="matrix(1,0,0,0.78721141,0,61.345972)"
       r="8.232949"
       fy="288.2954"
       fx="8.4472264"
       cy="288.2954"
       cx="8.4472264"
       id="radialGradient842"
       xlink:href="#linearGradient840" />
    <radialGradient
       gradientUnits="userSpaceOnUse"
       gradientTransform="matrix(1,0,0,0.78721141,0,61.345972)"
       r="8.232949"
       fy="288.2954"
       fx="8.4472264"
       cy="288.2954"
       cx="8.4472264"
       id="radialGradient850"
       xlink:href="#linearGradient848" />
  </defs>
  <metadata
     id="metadata5">
    <rdf:RDF>
      <cc:Work
         rdf:about="">
        <dc:format>image/svg+xml</dc:format>
        <dc:type
           rdf:resource="http://purl.org/dc/dcmitype/StillImage" />
        <dc:title></dc:title>
      </cc:Work>
    </rdf:RDF>
  </metadata>
  <g
     transform="translate(0,-280.06666)"
     id="layer1">
    <path
       id="path856"
       d="m 9.672637,282.09777 a 5.2930202,5.2930202 0 0 0 -5.185075,4.23232 4.5067015,4.0972942 0 0 0 -3.98983827,4.06569 4.5067015,4.0972942 0 0 0 4.50635267,4.09724 4.5067015,4.0972942 0 0 0 0.1522425,-0.007 v 0.007 h 8.6694701 v -0.002 a 2.5114843,2.5114843 0 0 0 0.05923,0.002 2.5114843,2.5114843 0 0 0 2.51171,-2.51171 2.5114843,2.5114843 0 0 0 -1.895547,-2.43144 5.2930202,5.2930202 0 0 0 0.464475,-2.15906 5.2930202,5.2930202 0 0 0 -5.2930272,-5.29304 z"
       style="opacity:1;fill:url(#radialGradient842);fill-opacity:1;stroke:url(#radialGradient850);stroke-width:0.566893;stroke-linecap:round;stroke-linejoin:round;stroke-miterlimit:4;stroke-dasharray:none;stroke-dashoffset:0" />
    <g
       transform="matrix(0.50207391,0,0,0.50207391,5.5824627,144.20684)"
       id="g846">
      <path
         style="display:inline;fill:#6f9ccc;fill-opacity:1;stroke:#01043a;stroke-width:0.369978;stroke-linecap:round;stroke-linejoin:round;stroke-miterlimit:4;stroke-dasharray:none;stroke-opacity:1"
         d="m 9.7817819,284.99599 -0.6638486,1.99199 -0.5260557,0.27701 -1.7708862,-0.94084 -0.8020974,1.02371 0.9683042,1.66007 -0.1936609,0.66432 -1.8262884,0.83005 0.055374,0.88544 1.8816814,0.60892 0.1936609,0.71924 -0.8025822,1.63262 1.0237064,0.8575 1.6051642,-0.99576 0.5809732,0.19366 0.8025822,1.85374 0.940366,-0.0829 0.664324,-1.96455 0.691778,-0.30446 1.632618,0.85751 0.802106,-0.88545 -0.968303,-1.68754 0.08287,-0.60892 1.964547,-0.74718 v -1.1345 l -1.909145,-0.44273 -0.414776,-0.69178 0.746695,-1.71548 -0.719241,-0.71924 -1.632619,0.9129 -0.830044,-0.24906 -0.580974,-1.77088 z m 0.7611541,3.62463 a 2.0060718,2.0060718 0 0 1 2.005967,2.00597 2.0060718,2.0060718 0 0 1 -2.005967,2.00645 2.0060718,2.0060718 0 0 1 -2.0059758,-2.00645 2.0060718,2.0060718 0 0 1 2.0059758,-2.00597 z"
         id="path1184" />
      <path
         style="display:inline;fill:url(#linearGradient1223);fill-opacity:1;stroke:none;stroke-width:1.5;stroke-linecap:butt;stroke-linejoin:miter;stroke-miterlimit:4;stroke-dasharray:none;stroke-opacity:1;filter:url(#filter1253)"
         d="m 553.70898,630.78906 -1.96484,5.87696 a 2.8744889,2.8744889 0 0 1 -1.38672,1.63867 l -2.13476,1.12109 a 2.8744889,2.8744889 0 0 1 -2.67969,-0.006 l -5.05664,-2.67969 -0.56836,0.71485 2.94531,5.05078 a 2.8744889,2.8744889 0 0 1 0.28125,2.25781 l -0.78906,2.69531 a 2.8744889,2.8744889 0 0 1 -1.57227,1.8086 l -5.16797,2.3457 5.31446,1.7207 a 2.8744889,2.8744889 0 0 1 1.89062,1.97852 l 0.78907,2.91602 a 2.8744889,2.8744889 0 0 1 -0.19922,2.02343 l -2.25782,4.59766 0.82618,0.69336 4.74609,-2.94531 a 2.8744889,2.8744889 0 0 1 2.42187,-0.2793 l 2.35547,0.78125 a 2.8744889,2.8744889 0 0 1 1.72657,1.58008 l 2.36914,5.45508 2.03125,-6.01563 a 2.8744889,2.8744889 0 0 1 1.56445,-1.70508 l 2.80469,-1.23242 a 2.8744889,2.8744889 0 0 1 2.49414,0.0801 l 4.64453,2.44336 0.35351,-0.39844 -2.88671,-5.02734 A 2.8744889,2.8744889 0 0 1 566.25,656.45703 l 0.33984,-2.4668 a 2.8744889,2.8744889 0 0 1 1.83008,-2.29492 l 6.11328,-2.32617 v -0.33203 l -5.52148,-1.2832 a 2.8744889,2.8744889 0 0 1 -1.81641,-1.31446 l -1.68359,-2.79687 a 2.8744889,2.8744889 0 0 1 -0.16992,-2.62891 l 2.23632,-5.15234 -4.70117,2.63476 a 2.8744889,2.8744889 0 0 1 -2.23047,0.24414 l -3.36523,-1.01171 a 2.8744889,2.8744889 0 0 1 -1.9043,-1.85938 z m 1.0879,9.72852 a 9.9949327,9.9949327 0 0 1 9.99414,9.99609 9.9949327,9.9949327 0 0 1 -9.99414,9.99414 9.9949327,9.9949327 0 0 1 -9.99415,-9.99414 9.9949327,9.9949327 0 0 1 9.99415,-9.99609 z"
         transform="matrix(0.24665171,0,0,0.24665171,-126.29897,130.17675)"
         id="path1207" />
      <path
         style="fill:#eb2727;fill-opacity:1;stroke:#000000;stroke-width:0.493303;stroke-linecap:butt;stroke-linejoin:miter;stroke-miterlimit:4;stroke-dasharray:none;stroke-opacity:1;paint-order:fill markers stroke"
         d="M 1.0649749,280.86772 H 9.517318 v 3.09138 H 4.1563419 v 2.62179 h 3.1305019 v 3.09136 H 4.1563419 v 6.37839 h -3.091367 z"
         id="path1283" />
      <path
         transform="matrix(0.93222692,0,0,0.93222692,-131.9812,129.49018)"
         style="fill:url(#linearGradient1295);fill-opacity:1;stroke:none;stroke-width:0.529167;stroke-linecap:butt;stroke-linejoin:miter;stroke-miterlimit:4;stroke-dasharray:none;stroke-opacity:1;paint-order:fill markers stroke;filter:url(#filter878)"
         d="m 143.26367,162.92773 v 15.35966 h 2.22656 v -6.45927 c 4.5e-4,-0.30077 0.24416,-0.54447 0.54493,-0.54492 h 2.8125 v -2.22656 h -2.8125 c -0.30077,-4.5e-4 -0.54448,-0.24415 -0.54493,-0.54492 v -2.8125 c 4.5e-4,-0.30077 0.24416,-0.54447 0.54493,-0.54492 h 5.20507 v -2.22657 z"
         id="path1287" />
      <path
         style="opacity:0.581;fill:url(#radialGradient955);fill-opacity:1;stroke:none;stroke-width:2.4489;stroke-linecap:round;stroke-linejoin:round;stroke-miterlimit:4;stroke-dasharray:none;stroke-dashoffset:0"
         d="m 1.3100873,281.12424 v 3.96048 a 3.3435926,3.3435926 0 0 0 0.043408,0.002 3.3435926,3.3435926 0 0 0 3.343982,-3.34346 3.3435926,3.3435926 0 0 0 -0.059945,-0.61908 z"
         id="path947" />
    </g>
  </g>
</svg>
