<?xml version="1.0" encoding="UTF-8" standalone="no"?>
<!-- Created with Inkscape (http://www.inkscape.org/) -->

<svg
        xmlns:dc="http://purl.org/dc/elements/1.1/"
        xmlns:cc="http://creativecommons.org/ns#"
        xmlns:rdf="http://www.w3.org/1999/02/22-rdf-syntax-ns#"
        xmlns="http://www.w3.org/2000/svg"
        xmlns:sodipodi="http://sodipodi.sourceforge.net/DTD/sodipodi-0.dtd"
        xmlns:inkscape="http://www.inkscape.org/namespaces/inkscape"
        id="svg2"
        version="1.1"
        inkscape:version="0.92.5 (0.92.5+68)"
        xml:space="preserve"
        width="114.8625"
        height="114.8625"
        viewBox="0 0 114.8625 114.8625"
        sodipodi:docname="git.svg"><metadata
     id="metadata8"><rdf:RDF><cc:Work
         rdf:about=""><dc:format>image/svg+xml</dc:format><dc:type
           rdf:resource="http://purl.org/dc/dcmitype/StillImage" /><dc:title /></cc:Work></rdf:RDF></metadata><defs
     id="defs6" /><sodipodi:namedview
     pagecolor="#ffffff"
     bordercolor="#666666"
     borderopacity="1"
     objecttolerance="10"
     gridtolerance="10"
     guidetolerance="10"
     inkscape:pageopacity="0"
     inkscape:pageshadow="2"
     inkscape:window-width="1920"
     inkscape:window-height="1023"
     id="namedview4"
     showgrid="false"
     inkscape:zoom="5.5086668"
     inkscape:cx="83.940643"
     inkscape:cy="60.85176"
     inkscape:window-x="0"
     inkscape:window-y="0"
     inkscape:window-maximized="1"
     inkscape:current-layer="g10" /><g
     id="g10"
     inkscape:groupmode="layer"
     inkscape:label="ink_ext_XXXXXX"
     transform="matrix(1.25,0,0,-1.25,0,114.8625)"><path
       style="fill:#808080;fill-opacity:1;fill-rule:nonzero;stroke:none;stroke-width:0.1"
       d="M 90.1547,50.0352 50.0355,90.1527 c -2.3093,2.311 -6.0566,2.311 -8.3691,0 L 33.3363,81.8211 43.9039,71.2535 c 2.4559,0.8293 5.2723,0.2727 7.2293,-1.6847 1.9688,-1.9696 2.5207,-4.8102 1.6699,-7.275 L 62.9887,52.1094 c 2.4648,0.8496 5.3066,0.3004 7.2754,-1.6711 2.75,-2.7492 2.75,-7.2059 0,-9.9574 -2.752,-2.7516 -7.2078,-2.7516 -9.961,0 -2.0683,2.0703 -2.5801,5.1097 -1.5312,7.6582 l -9.5,9.4992 V 32.6414 c 0.6699,-0.332 1.3027,-0.7742 1.8613,-1.3312 2.75,-2.7497 2.75,-7.2059 0,-9.9598 -2.75,-2.7488 -7.209,-2.7488 -9.957,0 -2.75,2.7539 -2.75,7.2101 0,9.9598 0.6797,0.6789 1.4668,1.1925 2.3066,1.5363 v 25.2281 c -0.8398,0.3438 -1.625,0.8531 -2.3066,1.5367 -2.0828,2.0821 -2.584,5.1395 -1.5157,7.6977 L 29.2426,77.7285 1.73281,50.2211 c -2.310544,-2.3129 -2.310544,-6.0602 0,-8.3711 L 41.8539,1.73242 c 2.3098,-2.310545 6.0559,-2.310545 8.3691,0 L 90.1547,41.6641 c 2.3117,2.3113 2.3117,6.0605 0,8.3711"
       id="path14"
       inkscape:connector-curvature="0" /><path
       style="fill:#ffffff;fill-opacity:1;fill-rule:nonzero;stroke:none;stroke-width:0.125"
       d="m 41.740234,12.65625 13.138672,13.138672 c 3.069875,-1.036625 6.59086,-0.339328 9.03711,2.107422 2.461,2.462 3.15139,6.01275 2.08789,9.09375 l 12.732422,12.730468 c 3.081,-1.061999 6.63275,-0.376484 9.09375,2.087891 3.4375,3.4365 3.4375,9.007891 0,12.447266 -3.44,3.4395 -9.009672,3.4395 -12.451172,0 -2.585375,-2.587875 -3.225187,-6.386641 -1.914062,-9.572266 l -11.875,-11.875 v 31.246094 c 0.837375,0.415 1.627922,0.967812 2.326172,1.664062 3.4375,3.437125 3.4375,9.006844 0,12.449219 -3.4375,3.436 -9.010313,3.436 -12.445313,0 -3.4375,-3.442375 -3.4375,-9.012094 0,-12.449219 0.849625,-0.848625 1.833063,-1.490172 2.882813,-1.919921 V 42.269531 c -1.04975,-0.42975 -2.030813,-1.067375 -2.882813,-1.921875 -2.6035,-2.602625 -3.229906,-6.423344 -1.894531,-9.621094 L 36.628906,17.777344 Z"
       transform="matrix(0.8,0,0,-0.8,0,91.89)"
       id="path820"
       inkscape:connector-curvature="0" /></g></svg>