<?xml version="1.0" encoding="UTF-8" standalone="no"?>
<!-- Created with Inkscape (http://www.inkscape.org/) -->

<svg
   xmlns:dc="http://purl.org/dc/elements/1.1/"
   xmlns:cc="http://creativecommons.org/ns#"
   xmlns:rdf="http://www.w3.org/1999/02/22-rdf-syntax-ns#"
   xmlns:svg="http://www.w3.org/2000/svg"
   xmlns="http://www.w3.org/2000/svg"
   xmlns:xlink="http://www.w3.org/1999/xlink"
   xmlns:sodipodi="http://sodipodi.sourceforge.net/DTD/sodipodi-0.dtd"
   xmlns:inkscape="http://www.inkscape.org/namespaces/inkscape"
   width="64px"
   height="64px"
   id="svg3057"
   version="1.1"
   inkscape:version="0.92.5 (0.92.5+68)"
   sodipodi:docname="package_mod.svg">
  <defs
     id="defs3059">
    <linearGradient
       id="linearGradient3878">
      <stop
         style="stop-color:#000000;stop-opacity:1;"
         offset="0"
         id="stop3880" />
      <stop
         style="stop-color:#000000;stop-opacity:1;"
         offset="1"
         id="stop3882" />
    </linearGradient>
    <linearGradient
       id="linearGradient3870">
      <stop
         style="stop-color:#000000;stop-opacity:1;"
         offset="0"
         id="stop3872" />
      <stop
         style="stop-color:#000000;stop-opacity:1;"
         offset="1"
         id="stop3874" />
    </linearGradient>
    <linearGradient
       id="linearGradient3858">
      <stop
         style="stop-color:#000000;stop-opacity:1;"
         offset="0"
         id="stop3868" />
      <stop
         style="stop-color:#000000;stop-opacity:1;"
         offset="1"
         id="stop3862" />
    </linearGradient>
    <linearGradient
       id="linearGradient3839">
      <stop
         style="stop-color:#73d216;stop-opacity:0;"
         offset="0"
         id="stop3841" />
      <stop
         style="stop-color:#73d216;stop-opacity:0;"
         offset="1"
         id="stop3843" />
    </linearGradient>
    <linearGradient
       inkscape:collect="always"
       xlink:href="#linearGradient3839"
       id="linearGradient3856"
       gradientUnits="userSpaceOnUse"
       x1="46.097534"
       y1="44.755539"
       x2="8.6358585"
       y2="30.117304" />
    <linearGradient
       inkscape:collect="always"
       xlink:href="#linearGradient3858"
       id="linearGradient3864"
       x1="9.78771"
       y1="39.660793"
       x2="47.374119"
       y2="39.660793"
       gradientUnits="userSpaceOnUse" />
    <linearGradient
       inkscape:collect="always"
       xlink:href="#linearGradient3870"
       id="linearGradient3876"
       x1="9.923306"
       y1="34.257634"
       x2="46.865743"
       y2="34.257634"
       gradientUnits="userSpaceOnUse" />
    <linearGradient
       inkscape:collect="always"
       xlink:href="#linearGradient3878"
       id="linearGradient3884"
       x1="28.433661"
       y1="48.904176"
       x2="29.433661"
       y2="48.904176"
       gradientUnits="userSpaceOnUse" />
    <radialGradient
       inkscape:collect="always"
       xlink:href="#linearGradient3887"
       id="radialGradient3893"
       cx="32.5"
       cy="52"
       fx="32.5"
       fy="52"
       r="28.5"
       gradientTransform="matrix(0.96428571,-4.7464116e-8,3.0929704e-8,0.24561404,1.1607127,39.228072)"
       gradientUnits="userSpaceOnUse" />
    <linearGradient
       inkscape:collect="always"
       id="linearGradient3887">
      <stop
         style="stop-color:#2e3436;stop-opacity:1;"
         offset="0"
         id="stop3889" />
      <stop
         style="stop-color:#2e3436;stop-opacity:0;"
         offset="1"
         id="stop3891" />
    </linearGradient>
    <linearGradient
       gradientTransform="matrix(0.8782269,0,0,0.88301047,5.1375817,6.0680873)"
       inkscape:collect="always"
       xlink:href="#linearGradient3863"
       id="linearGradient3869"
       x1="22"
       y1="35"
       x2="20"
       y2="15"
       gradientUnits="userSpaceOnUse" />
    <linearGradient
       inkscape:collect="always"
       id="linearGradient3863">
      <stop
         style="stop-color:#271903;stop-opacity:1"
         offset="0"
         id="stop3865" />
      <stop
         style="stop-color:#c17d11;stop-opacity:1"
         offset="1"
         id="stop3867" />
    </linearGradient>
    <linearGradient
       gradientTransform="matrix(0.8782269,0,0,0.88301047,5.1375817,6.0680873)"
       inkscape:collect="always"
       xlink:href="#linearGradient3873"
       id="linearGradient3879"
       x1="39"
       y1="27"
       x2="38"
       y2="17"
       gradientUnits="userSpaceOnUse" />
    <linearGradient
       inkscape:collect="always"
       id="linearGradient3873">
      <stop
         style="stop-color:#8f5902;stop-opacity:1"
         offset="0"
         id="stop3875" />
      <stop
         style="stop-color:#e9b96e;stop-opacity:1"
         offset="1"
         id="stop3877" />
    </linearGradient>
    <linearGradient
       gradientTransform="matrix(0.8782269,0,0,0.88301047,5.1375817,6.0680873)"
       inkscape:collect="always"
       xlink:href="#linearGradient3827"
       id="linearGradient3833"
       x1="22.181818"
       y1="24.545454"
       x2="23.272728"
       y2="33.772724"
       gradientUnits="userSpaceOnUse" />
    <linearGradient
       inkscape:collect="always"
       id="linearGradient3827">
      <stop
         style="stop-color:#e9b96e;stop-opacity:1"
         offset="0"
         id="stop3829" />
      <stop
         style="stop-color:#c17d11;stop-opacity:1"
         offset="1"
         id="stop3831" />
    </linearGradient>
    <linearGradient
       gradientTransform="matrix(0.8782269,0,0,0.88301047,5.1375817,6.0680873)"
       inkscape:collect="always"
       xlink:href="#linearGradient3853"
       id="linearGradient3859"
       x1="51.5"
       y1="32.5"
       x2="45.5"
       y2="24.636364"
       gradientUnits="userSpaceOnUse" />
    <linearGradient
       inkscape:collect="always"
       id="linearGradient3853">
      <stop
         style="stop-color:#8f5902;stop-opacity:1"
         offset="0"
         id="stop3855" />
      <stop
         style="stop-color:#c17d11;stop-opacity:1"
         offset="1"
         id="stop3857" />
    </linearGradient>
    <linearGradient
       id="linearGradient3864-3">
      <stop
         style="stop-color:#71b2f8;stop-opacity:1;"
         offset="0"
         id="stop3866" />
      <stop
         style="stop-color:#002795;stop-opacity:1;"
         offset="1"
         id="stop3868-6" />
    </linearGradient>
    <linearGradient
       id="linearGradient3682">
      <stop
         id="stop3684"
         offset="0"
         style="stop-color:#ff6d0f;stop-opacity:1;" />
      <stop
         id="stop3686"
         offset="1"
         style="stop-color:#ff1000;stop-opacity:1;" />
    </linearGradient>
    <inkscape:perspective
       id="perspective3148"
       inkscape:persp3d-origin="32 : 21.333333 : 1"
       inkscape:vp_z="64 : 32 : 1"
       inkscape:vp_y="0 : 1000 : 0"
       inkscape:vp_x="0 : 32 : 1"
       sodipodi:type="inkscape:persp3d" />
    <linearGradient
       id="linearGradient3864-9">
      <stop
         id="stop3866-1"
         offset="0"
         style="stop-color:#204a87;stop-opacity:1" />
      <stop
         id="stop3868-1"
         offset="1"
         style="stop-color:#729fcf;stop-opacity:1" />
    </linearGradient>
    <linearGradient
       id="linearGradient3682-0">
      <stop
         style="stop-color:#a40000;stop-opacity:1"
         offset="0"
         id="stop3684-0" />
      <stop
         style="stop-color:#ef2929;stop-opacity:1"
         offset="1"
         id="stop3686-0" />
    </linearGradient>
    <inkscape:perspective
       sodipodi:type="inkscape:persp3d"
       inkscape:vp_x="0 : 32 : 1"
       inkscape:vp_y="0 : 1000 : 0"
       inkscape:vp_z="64 : 32 : 1"
       inkscape:persp3d-origin="32 : 21.333333 : 1"
       id="perspective3148-5" />
    <radialGradient
       inkscape:collect="always"
       xlink:href="#linearGradient3682-0-6"
       id="radialGradient3817-5-3"
       gradientUnits="userSpaceOnUse"
       gradientTransform="matrix(1.2361257,0.30001695,-0.83232803,3.3883821,-499.9452,-167.33108)"
       cx="270.58316"
       cy="33.899986"
       fx="270.58316"
       fy="33.899986"
       r="19.571428" />
    <linearGradient
       id="linearGradient3682-0-6">
      <stop
         style="stop-color:#ff390f;stop-opacity:1"
         offset="0"
         id="stop3684-0-7" />
      <stop
         style="stop-color:#ff1000;stop-opacity:1;"
         offset="1"
         id="stop3686-0-5" />
    </linearGradient>
  </defs>
  <sodipodi:namedview
     id="base"
     pagecolor="#ffffff"
     bordercolor="#666666"
     borderopacity="1.0"
     inkscape:pageopacity="0.0"
     inkscape:pageshadow="2"
     inkscape:zoom="11.595398"
     inkscape:cx="31.129873"
     inkscape:cy="18.894949"
     inkscape:current-layer="layer1"
     showgrid="true"
     inkscape:document-units="px"
     inkscape:grid-bbox="true"
     inkscape:window-width="1920"
     inkscape:window-height="1023"
     inkscape:window-x="0"
     inkscape:window-y="0"
     inkscape:window-maximized="1"
     inkscape:snap-global="false">
    <inkscape:grid
       type="xygrid"
       id="grid3015"
       empspacing="2"
       visible="true"
       enabled="true"
       snapvisiblegridlinesonly="true" />
  </sodipodi:namedview>
  <metadata
     id="metadata3062">
    <rdf:RDF>
      <cc:Work
         rdf:about="">
        <dc:format>image/svg+xml</dc:format>
        <dc:type
           rdf:resource="http://purl.org/dc/dcmitype/StillImage" />
        <dc:title />
      </cc:Work>
    </rdf:RDF>
  </metadata>
  <g
     id="layer1"
     inkscape:label="Layer 1"
     inkscape:groupmode="layer">
    <rect
       style="opacity:1;fill:#808080;fill-opacity:1;stroke:none;stroke-width:8.04699993;stroke-linecap:round;stroke-linejoin:round;stroke-miterlimit:4;stroke-dasharray:none;stroke-dashoffset:0"
       id="rect887"
       width="59.714764"
       height="59.837887"
       x="2.1426182"
       y="2.0810566"
       ry="5.6636682" />
    <path
       style="fill:#ffffff;stroke-width:0.12973452"
       d="m 21.669922,8.9550781 v 2.7539059 c -1.716388,0.276983 -3.329494,0.957744 -4.738281,1.972657 l -1.955079,-1.955079 -2.503906,2.50586 1.947266,1.947266 c -1.016989,1.410213 -1.682001,3.038917 -1.958984,4.746093 H 9.7011719 v 3.541016 h 2.7539061 c 0.276983,1.717037 0.957743,3.331447 1.972656,4.740234 l -1.955078,1.955078 2.503906,2.503907 1.855469,-1.857422 0.0918,-0.0918 c 1.410214,1.016989 3.04087,1.682001 4.748047,1.958984 V 36.4375 h 3.541016 v -2.753906 c 1.052795,-0.170082 2.099124,-0.492811 3.107421,-0.984375 0.004,-0.0019 0.0078,-0.0021 0.01172,-0.0039 0.579524,-0.28334 1.114351,-0.619042 1.621094,-0.984374 l 1.087891,1.08789 0.867187,0.867188 2.503906,-2.503907 -0.859375,-0.861328 -1.08789,-1.085937 c 1.016989,-1.410215 1.682001,-3.04087 1.958984,-4.748047 h 2.761719 V 20.925781 H 34.429688 C 34.152704,19.208745 33.473897,17.596287 32.458984,16.1875 l 0.103516,-0.105469 1.849609,-1.849609 -2.503906,-2.503906 -1.947265,1.947265 C 28.550724,12.658792 26.92189,11.99378 25.214844,11.716797 V 8.9550781 Z m 1.509766,9.1054689 c 1.809279,-0.08797 3.610365,0.888858 4.443359,2.597656 1.111305,2.278397 0.135819,5.107444 -2.142578,6.21875 -2.278397,1.111306 -5.108093,0.135819 -6.21875,-2.142578 -1.111306,-2.278398 -0.137773,-5.108093 2.140625,-6.21875 0.569599,-0.277826 1.17425,-0.425754 1.777344,-0.455078 z m 15.037109,9.707031 -3.376953,1.064453 0.830078,2.632813 c -1.604816,0.805781 -2.927366,1.947124 -3.931641,3.298828 l -2.449219,-1.273438 -1.634765,3.140625 2.447265,1.273438 c -0.539305,1.62739 -0.708183,3.379523 -0.453124,5.117187 l -2.625,0.828125 1.064453,3.376953 2.503906,-0.789062 0.126953,-0.03906 c 0.805781,1.604815 1.949077,2.927365 3.300781,3.93164 l -1.27539,2.447266 3.142578,1.636718 0.714843,-1.373046 0.558594,-1.074219 c 1.627389,0.539306 3.379524,0.706879 5.117188,0.451172 l 0.458984,1.457031 0.369141,1.169922 3.376953,-1.064453 -0.365234,-1.160157 -0.464844,-1.472656 c 1.604816,-0.805781 2.927365,-1.947124 3.93164,-3.298828 l 2.449219,1.275391 1.634766,-3.142578 -1.685547,-0.876953 -0.761719,-0.398438 c 0.539307,-1.627389 0.708183,-3.37757 0.453125,-5.115234 l 2.625,-0.828125 -1.064453,-3.378907 -2.630859,0.830078 c -0.805002,-1.604815 -1.949078,-2.927365 -3.300782,-3.93164 l 1.275391,-2.449219 -3.142578,-1.634765 -1.273438,2.447265 C 42.53472,30.306397 40.784539,30.13752 39.046875,30.392578 Z m -10.105469,5.035156 c -0.134794,0.06513 -0.207835,0.100933 0,0 z m 12.115234,3.992188 c 1.490014,-0.133024 3.026464,0.440532 4.033204,1.671875 1.604815,1.958213 1.304024,4.9362 -0.660157,6.541015 -1.962883,1.597552 -4.931002,1.306094 -6.539062,-0.662109 -1.598848,-1.960807 -1.306626,-4.9323 0.658203,-6.539062 0.736567,-0.59879 1.613804,-0.931905 2.507812,-1.011719 z"
       id="path958"
       inkscape:connector-curvature="0" />
  </g>
</svg>
