<?xml version="1.0" encoding="UTF-8" standalone="no"?>
<svg
   xmlns:dc="http://purl.org/dc/elements/1.1/"
   xmlns:cc="http://creativecommons.org/ns#"
   xmlns:rdf="http://www.w3.org/1999/02/22-rdf-syntax-ns#"
   xmlns:svg="http://www.w3.org/2000/svg"
   xmlns="http://www.w3.org/2000/svg"
   xmlns:xlink="http://www.w3.org/1999/xlink"
   xmlns:sodipodi="http://sodipodi.sourceforge.net/DTD/sodipodi-0.dtd"
   xmlns:inkscape="http://www.inkscape.org/namespaces/inkscape"
   width="64"
   height="64"
   version="1.1"
   id="svg51"
   sodipodi:docname="package_macro.svg"
   inkscape:version="0.92.5 (0.92.5+68)">
  <metadata
     id="metadata55">
    <rdf:RDF>
      <cc:Work
         rdf:about="">
        <dc:format>image/svg+xml</dc:format>
        <dc:type
           rdf:resource="http://purl.org/dc/dcmitype/StillImage" />
        <dc:title />
      </cc:Work>
    </rdf:RDF>
  </metadata>
  <sodipodi:namedview
     pagecolor="#ffffff"
     bordercolor="#666666"
     borderopacity="1"
     objecttolerance="10"
     gridtolerance="10"
     guidetolerance="10"
     inkscape:pageopacity="0"
     inkscape:pageshadow="2"
     inkscape:window-width="1920"
     inkscape:window-height="1023"
     id="namedview53"
     showgrid="true"
     inkscape:zoom="9.8865509"
     inkscape:cx="38.349879"
     inkscape:cy="40.574128"
     inkscape:window-x="0"
     inkscape:window-y="0"
     inkscape:window-maximized="1"
     inkscape:current-layer="svg51">
    <inkscape:grid
       type="xygrid"
       id="grid862"
       empspacing="2" />
  </sodipodi:namedview>
  <defs
     id="defs27">
    <linearGradient
       id="lg1">
      <stop
         stop-color="#3778ae"
         offset="0"
         id="stop2" />
      <stop
         stop-color="#366c99"
         offset="1"
         id="stop4" />
    </linearGradient>
    <linearGradient
       id="lg2">
      <stop
         stop-color="#fff"
         offset="0"
         id="stop7" />
      <stop
         stop-color="#fff"
         stop-opacity="0.165"
         offset="1"
         id="stop9" />
    </linearGradient>
    <linearGradient
       id="lg3">
      <stop
         stop-color="#ffe253"
         offset="0"
         id="stop12" />
      <stop
         stop-color="#ffca1c"
         offset="1"
         id="stop14" />
    </linearGradient>
    <linearGradient
       id="lg4">
      <stop
         stop-color="#000"
         offset="0"
         id="stop17" />
      <stop
         stop-color="#000"
         stop-opacity="0"
         offset="1"
         id="stop19" />
    </linearGradient>
    <linearGradient
       x1="94.693001"
       y1="112.511"
       x2="94.693001"
       y2="64.053001"
       id="lg5"
       xlink:href="#lg2"
       gradientUnits="userSpaceOnUse"
       gradientTransform="matrix(0.26847276,0,0,0.26847276,0.82897351,-5.2081851)" />
    <linearGradient
       x1="59.728001"
       y1="102"
       x2="142.62"
       y2="102"
       id="lg6"
       xlink:href="#lg1"
       gradientUnits="userSpaceOnUse"
       gradientTransform="matrix(0.26847276,0,0,0.26847276,0.82897351,-5.2081851)" />
    <linearGradient
       x1="94.693001"
       y1="112.511"
       x2="94.693001"
       y2="64.053001"
       id="lg7"
       xlink:href="#lg2"
       gradientUnits="userSpaceOnUse"
       gradientTransform="matrix(0.26847276,0,0,0.26847276,9.2368357,3.4910781)" />
    <linearGradient
       x1="119.191"
       y1="89.129997"
       x2="116.965"
       y2="169.27901"
       id="lg8"
       xlink:href="#lg3"
       gradientUnits="userSpaceOnUse"
       gradientTransform="matrix(0.26847276,0,0,0.26847276,1.5798943,-4.1346825)" />
    <radialGradient
       cx="15.115"
       cy="63.965"
       r="12.289"
       fx="15.115"
       fy="63.965"
       id="rg1"
       xlink:href="#lg4"
       gradientUnits="userSpaceOnUse"
       gradientTransform="matrix(1.2138546,0,0,0.41859319,13.874515,13.187591)" />
    <radialGradient
       inkscape:collect="always"
       xlink:href="#lg4"
       id="radialGradient895"
       gradientUnits="userSpaceOnUse"
       gradientTransform="matrix(1.2138546,0,0,0.82552465,24.736004,-1.804991)"
       cx="15.115"
       cy="63.965"
       fx="15.115"
       fy="63.965"
       r="12.289" />
  </defs>
  <path
     style="fill:url(#radialGradient895);stroke-width:1.06540716"
     inkscape:connector-curvature="0"
     id="path893"
     d="M 58,51 A 14.916604,10.144865 0 0 1 28.166793,51 14.916604,10.144865 0 1 1 58,51 Z" />
  <path
     style="opacity:1;fill:#ffffff;fill-opacity:1;stroke:#666666;stroke-width:1.92450094;stroke-linecap:round;stroke-linejoin:round;stroke-miterlimit:4;stroke-dasharray:none;stroke-dashoffset:0"
     d="M 7,3 H 57 V 48.38239 L 46.128302,59 H 7 Z"
     id="rect877"
     inkscape:connector-curvature="0"
     sodipodi:nodetypes="cccccc" />
  <path
     d="m 47.138511,39.963061 a 14.916604,5.1440882 0 0 1 -29.833207,0 14.916604,5.1440882 0 1 1 29.833207,0 z"
     id="path29"
     inkscape:connector-curvature="0"
     style="fill:url(#rg1);stroke-width:0.75865912" />
  <path
     d="m 39.869495,38.028935 c 0,2.072581 -1.798781,3.122337 -3.624418,3.645888 -2.746498,0.789309 -4.95063,0.668455 -7.246029,0 -1.91698,-0.558525 -3.624418,-1.699548 -3.624418,-3.645888 v -6.837946 c 0,-1.967962 1.640297,-3.648544 3.624418,-3.648544 l 7.130182,-0.463616 c 2.413598,0 3.991002,-1.506545 3.991002,-3.979167 l 0.656619,-3.305402 h 2.716986 c 2.110134,0 3.103599,1.567921 3.624418,3.645812 0.724899,2.886167 0.75699,5.044704 0,7.294508 -0.732941,2.185317 -1.517318,3.645812 -3.624418,3.645812 H 39.869495 32.62339 v -0.01517 c 6.253172,0.01517 7.246105,-2.516017 7.246105,3.662882 z"
     id="path31"
     inkscape:connector-curvature="0"
     style="fill:url(#lg8);stroke-width:0.75865912" />
  <path
     d="m 35.3403,38.482689 c 0,-0.754411 0.609431,-1.366573 1.358455,-1.366573 0.758659,0 1.358455,0.612162 1.358455,1.366573 0,0.757066 -0.6067,1.369152 -1.358455,1.369152 -0.749024,0 -1.358455,-0.612086 -1.358455,-1.369152 z"
     id="path33"
     inkscape:connector-curvature="0"
     style="fill:#ffffff;stroke-width:0.75865912" />
  <path
     d="m 40.769113,19.793881 v 3.206472 c -2.587862,4.549603 -7.504049,4.55848 -11.62812,4.55848 l -1.530215,0.155676 c -2.150192,1.848397 -2.218623,4.814679 -2.21703,7.416348 4.741771,-5.29104 9.799903,-5.690246 12.323355,-5.678867 5.035752,0.022 7.407396,-1.216054 9.812421,-3.940399 -0.01214,-0.05311 0.01214,-0.100143 0,-0.154539 -0.09271,-0.606927 -0.255061,-1.255126 -0.424925,-1.931546 -0.244136,-0.974042 -0.563532,-1.831479 -1.08162,-2.472394 -0.01214,-0.01214 -0.02883,-0.0258 -0.03869,-0.03793 0,0 -0.03186,0 -0.03793,0 -0.01745,-0.02124 -0.02124,-0.0569 -0.03793,-0.0767 -0.03566,-0.02579 -0.03945,-0.05311 -0.07662,-0.07662 -0.01214,-0.01214 -0.02959,0.01214 -0.03793,0 -0.549345,-0.356039 -1.216586,-0.621721 -1.893006,-0.734079 -0.613073,-0.101356 -1.228421,-0.178588 -1.854315,-0.23177 h -0.386309 -0.888466 z"
     id="path35"
     inkscape:connector-curvature="0"
     style="opacity:0.83699999;fill:url(#lg7);stroke-width:0.75865912" />
  <path
     d="m 40.232589,38.028556 c 0,2.072656 -2.161951,3.122641 -3.987512,3.646115 -2.746346,0.789006 -4.950251,0.668379 -7.245953,0 -1.917132,-0.558373 -3.642322,-1.699396 -3.645357,-3.645357 l -0.01214,-7.023666 c -0.0076,-2.331359 1.746434,-3.800882 3.678738,-3.793295 l 6.423339,0.01138 c 2.465642,0 4.863005,-2.503575 4.856177,-4.969217 v -2.45578 h 3.193955 c 2.110134,0 3.102916,1.568149 3.624115,3.646116 0.725278,2.885939 0.758659,5.044324 0,7.294507 -0.732865,2.184938 -1.517319,3.905274 -3.624115,3.905577 h -3.262234 -7.609351 v -0.01517 l 7.609351,0.02579 z"
     id="path37"
     inkscape:connector-curvature="0"
     style="fill:none;stroke:#bb9400;stroke-width:1.23661435" />
  <path
     d="m 40.920162,20.412036 v 1.815699 c 0,2.825626 -2.652652,5.595642 -5.675453,5.595642 h -6.258255 c -2.162633,0 -3.048595,1.636352 -3.037822,3.366853 l 0.04248,6.837719 c 0.0076,0.792495 0.303464,1.383415 0.870941,1.89293 0.567477,0.50944 1.420665,0.897494 2.317931,1.159004 2.212554,0.644253 4.230283,0.760328 6.876335,0 0.859333,-0.246413 2.002404,-0.713216 2.57762,-1.211124 0.575139,-0.498059 0.992098,-0.983298 0.992098,-1.84081 V 35.274168 H 32 V 34 l 11.512121,0.03793 c 0.910998,0 1.356482,-0.358391 1.808946,-0.882548 0.452465,-0.524234 0.84583,-1.552899 1.204296,-2.621926 0.717388,-2.131529 0.708284,-4.134009 0,-6.953718 -0.246716,-0.984587 -0.605107,-1.77989 -1.08162,-2.317855 -0.476438,-0.537965 -1.029501,-0.84985 -1.931622,-0.84985 z m 1.236159,1.236159 h 1.355496 c 0.394655,0 0.90986,0.318182 1.004465,0.425001 0.275014,0.310519 0.591754,0.939675 0.81131,1.815623 0.674827,2.686867 0.676345,4.363428 0.03793,6.258255 -0.342686,1.021914 -0.698346,1.983287 -0.965697,2.275977 -0.241557,0.257565 -0.758659,0.386385 -0.888618,0.386385 l -3.631321,-0.03869 h -9.117034 v 3.746562 h 7.626041 v 1.517318 c 0,0.551545 -0.738403,0.894383 -0.865478,1.004389 -0.369619,0.320078 -1.024797,0.634163 -1.777008,0.84985 -2.445158,0.702821 -4.172625,0.59623 -6.21979,0 C 28.75195,39.663164 28.080536,39.332085 27.7006,39.009199 27.320666,38.686313 27.2973,38.42192 27.227351,38.034321 l -0.04248,-6.837718 c -0.0099,-1.534312 0.489866,-2.130618 1.801663,-2.130618 h 6.258255 c 3.735106,0 6.911612,-3.300319 6.911612,-6.831877 7.6e-5,-0.195279 -7.6e-5,-0.390634 -7.6e-5,-0.585913 z"
     id="path39"
     inkscape:connector-curvature="0"
     style="opacity:0.38399999;fill:#ffffff;stroke-width:0.75865912" />
  <path
     d="m 24.623709,15.072214 c 0,-2.072581 0.555642,-3.200176 3.624267,-3.737155 2.083429,-0.365142 4.754744,-0.410738 7.24618,0 1.967886,0.324858 3.624418,1.790739 3.624418,3.737155 v 6.838098 c 0,2.00544 -1.608205,3.648468 -3.624418,3.648468 l -6.571581,0.363246 c -2.459117,0 -4.998805,2.148598 -4.998805,4.519332 l -0.207569,2.865455 h -2.491436 c -2.107479,0 -3.334383,-1.519518 -3.849816,-3.645812 -0.695387,-2.856427 -0.665799,-4.558631 0,-7.29428 0.577188,-2.386817 2.42164,-3.645964 4.324357,-3.645964 h 2.719641 c 0,0 6.786054,-0.02655 0,-0.02428 v -3.62419 0 z"
     id="path41"
     inkscape:connector-curvature="0"
     style="fill:url(#lg6);stroke-width:0.75865912" />
  <path
     d="m 26.435842,14.61846 c 0,-0.758659 0.606928,-1.369228 1.358455,-1.369228 0.749024,0 1.358531,0.612086 1.358531,1.369228 0,0.754411 -0.609507,1.366497 -1.358531,1.366497 -0.751679,0 -1.358455,-0.612086 -1.358455,-1.366497 z"
     id="path43"
     inkscape:connector-curvature="0"
     style="fill:#ffffff;stroke-width:0.75865912" />
  <path
     d="m 31.248776,11.03281 c -1.072289,0.02595 -2.101789,0.149304 -3.013243,0.309001 -3.068624,0.536979 -3.59263,1.674665 -3.59263,3.747245 l -0.223956,3.631701 -2.518976,-2.27e-4 c -2.107479,0 -3.942599,1.244656 -4.519787,3.631246 -0.391848,1.610254 -0.569298,2.870918 -0.502308,4.210861 4.773786,-5.410681 9.896101,-5.806094 12.439354,-5.794638 5.035675,0.022 7.407319,-1.216055 9.812345,-3.940399 v -1.738392 c 0,-1.94634 -1.663436,-3.422311 -3.631322,-3.747169 -1.401395,-0.231239 -2.870842,-0.34261 -4.249477,-0.309229 z"
     id="path45"
     inkscape:connector-curvature="0"
     style="opacity:0.37700004;fill:url(#lg5);stroke-width:0.75865912" />
  <path
     d="m 28.19798,11.511979 c 2.746422,-0.789309 4.95063,-0.668455 7.245953,0 1.91698,0.558449 3.625404,1.699396 3.624418,3.645888 v 7.382891 c 0,1.03648 -1.498048,3.436194 -3.620777,3.436194 h -6.751155 c -1.895358,0 -4.549679,2.064843 -4.549679,4.537541 v 2.878125 h -3.193955 c -2.11021,0 -3.103598,-1.567921 -3.624418,-3.645964 -0.724898,-2.886015 -0.758659,-5.044552 0,-7.294356 0.732941,-2.185393 1.517319,-3.905349 3.624418,-3.905349 h 3.261097 7.60935 v 0.01441 l -7.60935,-0.02579 0.01441,-3.697174 c -0.01973,-1.514663 1.831858,-2.69506 3.969532,-3.32634 z"
     id="path47"
     inkscape:connector-curvature="0"
     style="fill:none;stroke:#274e70;stroke-width:1.23661435" />
  <path
     d="m 23.522895,32.77469 v -2.121211 c 0,-2.825702 2.575875,-5.332387 5.345588,-5.332387 h 6.58812 c 1.634834,0 3.052844,-1.700231 3.037822,-3.32452 l -0.06327,-6.837795 c -0.0074,-0.792419 -0.282373,-1.383415 -0.849926,-1.89293 -0.567401,-0.509516 -1.420665,-0.89757 -2.317855,-1.158928 -2.212705,-0.644405 -4.230435,-0.760404 -6.87641,0 -0.859257,0.246413 -2.002557,0.71314 -2.57762,1.211124 -0.575216,0.497983 -0.992023,0.983222 -0.992023,1.840734 v 2.753781 h 7.625965 v 1.274851 l -11.51212,-0.03869 c -0.910391,0 -1.356483,0.358391 -1.808947,0.882624 -0.452464,0.524082 -0.845829,1.552748 -1.204296,2.62185 -0.717388,2.131529 -0.708208,4.133933 0,6.953642 0.246716,0.984588 0.605107,1.77989 1.081697,2.317855 0.476438,0.538041 1.0295,0.849926 1.931546,0.849926 h 2.591731 z M 22.28666,31.538455 h -1.355496 c -0.394503,0 -0.910391,-0.318182 -1.004389,-0.424849 -0.27509,-0.310595 -0.59183,-0.939827 -0.811386,-1.815775 -0.674827,-2.686791 -0.676269,-4.363276 -0.03831,-6.258255 0.342686,-1.021762 0.698345,-1.983211 0.965773,-2.268315 0.241557,-0.257413 0.751755,-0.386309 0.888541,-0.386309 l 12.748356,0.03869 v -3.747321 h -7.625965 v -1.517318 c 0,-0.551545 0.738327,-0.894383 0.865402,-1.004389 0.369695,-0.320078 1.024873,-0.634163 1.777083,-0.849698 2.445083,-0.70267 4.172625,-0.596155 6.219715,0 0.774743,0.225701 1.44608,0.55678 1.815623,0.888541 0.131476,0.102571 0.200741,0.22555 0.309381,0.347618 0.150746,0.179802 0.117744,0.417437 0.152567,0.618079 v 6.837795 c 0,0.937475 -0.801524,2.088361 -1.738316,2.088361 h -6.58812 c -3.482017,0 -6.581823,3.036836 -6.581823,6.568546 0,0.293981 0,0.884597 0,0.884597 z"
     id="path49"
     inkscape:connector-curvature="0"
     style="opacity:0.16499999;fill:#ffffff;stroke-width:0.75865912" />
  <path
     style="fill:#cccccc;stroke:#666666;stroke-width:2;stroke-linecap:round;stroke-linejoin:round;stroke-miterlimit:4;stroke-dasharray:none;stroke-opacity:1"
     d="M 57,48 H 46 l 0.128302,11 z"
     id="path880"
     inkscape:connector-curvature="0"
     sodipodi:nodetypes="cccc" />
</svg>
