<?xml version="1.0" encoding="UTF-8" standalone="no"?>
<svg
   xmlns:dc="http://purl.org/dc/elements/1.1/"
   xmlns:cc="http://creativecommons.org/ns#"
   xmlns:rdf="http://www.w3.org/1999/02/22-rdf-syntax-ns#"
   xmlns:svg="http://www.w3.org/2000/svg"
   xmlns="http://www.w3.org/2000/svg"
   xmlns:sodipodi="http://sodipodi.sourceforge.net/DTD/sodipodi-0.dtd"
   xmlns:inkscape="http://www.inkscape.org/namespaces/inkscape"
   width="64"
   height="64"
   viewBox="0 0 16.933333 16.933334"
   version="1.1"
   id="svg8"
   inkscape:version="1.0 (1.0+r73+1)"
   sodipodi:docname="source_cloud.svg">
  <defs
     id="defs2" />
  <sodipodi:namedview
     id="base"
     pagecolor="#ffffff"
     bordercolor="#666666"
     borderopacity="1.0"
     inkscape:pageopacity="0.0"
     inkscape:pageshadow="2"
     inkscape:zoom="10.710459"
     inkscape:cx="26.472861"
     inkscape:cy="34.963025"
     inkscape:document-units="px"
     inkscape:current-layer="layer1"
     showgrid="true"
     inkscape:window-width="1920"
     inkscape:window-height="1023"
     inkscape:window-x="0"
     inkscape:window-y="0"
     inkscape:window-maximized="1"
     units="px"
     inkscape:snap-global="false"
     inkscape:document-rotation="0">
    <inkscape:grid
       type="xygrid"
       id="grid1307"
       empspacing="2" />
  </sodipodi:namedview>
  <metadata
     id="metadata5">
    <rdf:RDF>
      <cc:Work
         rdf:about="">
        <dc:format>image/svg+xml</dc:format>
        <dc:type
           rdf:resource="http://purl.org/dc/dcmitype/StillImage" />
        <dc:title />
      </cc:Work>
    </rdf:RDF>
  </metadata>
  <g
     inkscape:label="Layer 1"
     inkscape:groupmode="layer"
     id="layer1"
     transform="translate(0,-280.06666)">
    <path
       sodipodi:nodetypes="cccccccccccccccsccccccccccccccccc"
       id="path834"
       d="m 9.5996094,280.66602 c -2.5341243,2.7e-4 -4.6919437,1.71256 -5.3945313,4.10937 -2.2259247,0.43742 -3.9328614,2.20705 -3.93554685,4.39649 4.248e-5,2.54495 2.25406315,4.55449 4.93945315,4.55468 0.00781,1.3e-4 0.015625,1.3e-4 0.023437,0 0.018309,-6.1e-4 0.036387,-0.001 0.054687,-0.002 0.021443,0.002 0.04295,0.002 0.064453,0.002 h 8.1542965 c 0.0046,4e-5 0.0091,4e-5 0.01367,0 0.0085,2.8e-4 0.01693,-2e-4 0.02539,0 0.0059,7e-5 0.01172,7e-5 0.01758,0 0.0031,0 0.0047,-0.004 0.0078,-0.004 1.703391,-0.0727 3.011493,-1.58388 3.054688,-3.0586 1e-6,-6.5e-4 1e-6,-0.001 0,-0.002 -0.0015,-1.14869 -0.736368,-2.05664 -1.71875,-2.57813 0.185642,-0.56654 0.372007,-1.13766 0.373047,-1.73632 1e-6,-6.5e-4 1e-6,-0.001 0,-0.002 9e-6,-3.12847 -2.551214,-5.67969 -5.6796876,-5.67968 z m 0,1.40234 c 2.3710446,0 4.2793036,1.9063 4.2792966,4.27734 -0.0013,0.60097 -0.130764,1.1959 -0.376953,1.74414 -0.178664,0.39792 0.04568,0.86063 0.46875,0.9668 0.740166,0.18724 1.25289,0.84394 1.253906,1.60742 8.2e-5,0.92548 -0.734947,1.66115 -1.660156,1.66211 -0.0081,-2.7e-4 -0.0173,-0.002 -0.02539,-0.002 -0.02931,-0.001 -0.05866,-5.4e-4 -0.08789,0.002 H 5.4492188 c -0.047203,-0.007 -0.094976,-0.009 -0.1425782,-0.006 -0.034645,0.002 -0.068809,0.005 -0.1035156,0.006 -1.9938585,-0.003 -3.5331746,-1.44414 -3.5332031,-3.15429 0.00296,-1.57024 1.3056918,-2.936 3.125,-3.12696 0.3039277,-0.032 0.552087,-0.25722 0.6132812,-0.55664 0.4080711,-1.99501 2.1550834,-3.4197 4.1914063,-3.41992 z"
       style="color:#000000;font-style:normal;font-variant:normal;font-weight:normal;font-stretch:normal;font-size:medium;line-height:normal;font-family:sans-serif;font-variant-ligatures:normal;font-variant-position:normal;font-variant-caps:normal;font-variant-numeric:normal;font-variant-alternates:normal;font-variant-east-asian:normal;font-feature-settings:normal;font-variation-settings:normal;text-indent:0;text-align:start;text-decoration:none;text-decoration-line:none;text-decoration-style:solid;text-decoration-color:#000000;letter-spacing:normal;word-spacing:normal;text-transform:none;writing-mode:lr-tb;direction:ltr;text-orientation:mixed;dominant-baseline:auto;baseline-shift:baseline;text-anchor:start;white-space:normal;shape-padding:0;shape-margin:0;inline-size:0;clip-rule:nonzero;display:inline;overflow:visible;visibility:visible;opacity:1;isolation:auto;mix-blend-mode:normal;color-interpolation:sRGB;color-interpolation-filters:linearRGB;solid-color:#000000;solid-opacity:1;vector-effect:none;fill:#ffffff;fill-opacity:1;fill-rule:nonzero;stroke:none;stroke-width:1.4015;stroke-linecap:round;stroke-linejoin:round;stroke-miterlimit:4;stroke-dasharray:none;stroke-dashoffset:0;stroke-opacity:1;color-rendering:auto;image-rendering:auto;shape-rendering:auto;text-rendering:auto;enable-background:accumulate;stop-color:#000000;stop-opacity:1" />
  </g>
</svg>
