<?xml version="1.0" encoding="UTF-8" standalone="no"?>
<svg
   xmlns="http://www.w3.org/2000/svg"
   width="64"
   height="64"
   stroke-miterlimit="10"
   style="fill-rule:evenodd;stroke-miterlimit:10;shape-rendering:geometricPrecision">
  <path
     d="m 62.14306,15.952743 c 0,0.218162 -0.06918,0.415042 -0.202199,0.595957 -0.138348,0.175595 -0.282016,0.266052 -0.446968,0.266052 -1.324941,0.127706 -2.415755,0.55339 -3.256481,1.282373 -0.846046,0.723662 -1.713376,2.112455 -2.612632,4.155737 L 41.896481,53.18942 c -0.09046,0.287337 -0.340546,0.431005 -0.755588,0.431005 -0.324584,0 -0.574673,-0.143668 -0.755589,-0.431005 L 32.685751,37.087936 23.831533,53.18942 c -0.180916,0.287337 -0.431005,0.431005 -0.755589,0.431005 -0.393758,0 -0.654489,-0.143668 -0.782194,-0.431005 L 8.8048987,22.252862 C 7.9641737,20.331963 7.075559,18.99106 6.1390546,18.230151 5.2078721,17.469241 3.9042159,16.995668 2.2387287,16.814752 c -0.1436683,0 -0.2820154,-0.0745 -0.4043995,-0.228804 -0.127705,-0.14899 -0.1915576,-0.324584 -0.1915576,-0.521464 0,-0.505498 0.1436682,-0.755588 0.4310047,-0.755588 1.2025563,0 2.4583231,0.05321 3.7726217,0.159631 1.2185193,0.11174 2.3678645,0.164953 3.442716,0.164953 1.096136,0 2.38915,-0.05321 3.879043,-0.164953 1.559066,-0.106416 2.942538,-0.159631 4.145094,-0.159631 0.287337,0 0.431005,0.25009 0.431005,0.755588 0,0.500179 -0.09046,0.750268 -0.266053,0.750268 -1.202555,0.09046 -2.149701,0.399079 -2.841438,0.91522 -0.691736,0.521462 -1.037603,1.202557 -1.037603,2.048603 0,0.431005 0.143668,0.96843 0.431005,1.612277 L 25.177756,46.564719 31.50448,34.61365 25.608761,22.252862 c -1.058888,-2.202914 -1.931539,-3.628954 -2.612633,-4.267479 -0.681094,-0.633205 -1.713377,-1.026962 -3.096849,-1.170631 -0.127705,0 -0.244768,-0.0745 -0.36183,-0.228804 -0.117064,-0.14899 -0.175595,-0.324584 -0.175595,-0.521464 0,-0.505498 0.122384,-0.755588 0.377794,-0.755588 1.202557,0 2.304012,0.05321 3.309691,0.159631 0.968429,0.11174 2.000713,0.164953 3.096848,0.164953 1.074851,0 2.213555,-0.05321 3.416111,-0.164953 1.239804,-0.106416 2.458323,-0.159631 3.660879,-0.159631 0.287337,0 0.431005,0.25009 0.431005,0.755588 0,0.500179 -0.08514,0.750268 -0.266053,0.750268 -2.405112,0.164952 -3.607668,0.846047 -3.607668,2.048603 0,0.537426 0.276694,1.37283 0.835404,2.500892 l 3.900326,7.917715 3.879043,-7.241942 c 0.537426,-1.021641 0.808799,-1.883651 0.808799,-2.586029 0,-1.649524 -1.202557,-2.527497 -3.607669,-2.639239 -0.218163,0 -0.324584,-0.250089 -0.324584,-0.750268 0,-0.180914 0.05321,-0.351189 0.159631,-0.510819 0.11174,-0.164953 0.218163,-0.244769 0.324584,-0.244769 0.86201,0 1.920897,0.05321 3.176665,0.159631 1.202555,0.11174 2.19227,0.164953 2.963821,0.164953 0.55339,0 1.37283,-0.04789 2.447682,-0.138347 1.362187,-0.122384 2.506212,-0.186237 3.421432,-0.186237 0.212842,0 0.319263,0.212842 0.319263,0.643847 0,0.574673 -0.196879,0.862009 -0.590636,0.862009 -1.399435,0.143669 -2.527497,0.532105 -3.378864,1.159988 -0.851368,0.627883 -1.915576,2.053924 -3.187306,4.278122 L 35.755995,31.81478 42.758491,46.080503 53.097283,22.04002 c 0.356509,-0.877974 0.537425,-1.686773 0.537425,-2.421077 0,-1.761265 -1.202557,-2.692449 -3.607669,-2.804191 -0.218163,0 -0.324584,-0.250089 -0.324584,-0.750268 0,-0.505498 0.159632,-0.755588 0.484215,-0.755588 0.877973,0 1.920898,0.05321 3.123455,0.159631 1.112098,0.11174 2.048602,0.164953 2.79887,0.164953 0.792835,0 1.708055,-0.05321 2.745659,-0.164953 1.080172,-0.106416 2.048602,-0.159631 2.910612,-0.159631 0.250089,0 0.377794,0.212842 0.377794,0.643847 z"
     style="stroke-width:0.53210455;fill:#ffffff" />
</svg>
