<?xml version="1.0" encoding="UTF-8" standalone="no"?>
<svg
   xmlns:dc="http://purl.org/dc/elements/1.1/"
   xmlns:cc="http://creativecommons.org/ns#"
   xmlns:rdf="http://www.w3.org/1999/02/22-rdf-syntax-ns#"
   xmlns:svg="http://www.w3.org/2000/svg"
   xmlns="http://www.w3.org/2000/svg"
   xmlns:sodipodi="http://sodipodi.sourceforge.net/DTD/sodipodi-0.dtd"
   xmlns:inkscape="http://www.inkscape.org/namespaces/inkscape"
   id="svg2"
   version="1.1"
   inkscape:version="1.0 (1.0+r73+1)"
   xml:space="preserve"
   width="114.8625"
   height="114.8625"
   viewBox="0 0 114.8625 114.8625"
   sodipodi:docname="wiki.svg"><metadata
     id="metadata8"><rdf:RDF><cc:Work
         rdf:about=""><dc:format>image/svg+xml</dc:format><dc:type
           rdf:resource="http://purl.org/dc/dcmitype/StillImage" /><dc:title /></cc:Work></rdf:RDF></metadata><defs
     id="defs6" /><sodipodi:namedview
     pagecolor="#ffffff"
     bordercolor="#666666"
     borderopacity="1"
     objecttolerance="10"
     gridtolerance="10"
     guidetolerance="10"
     inkscape:pageopacity="0"
     inkscape:pageshadow="2"
     inkscape:window-width="1920"
     inkscape:window-height="1023"
     id="namedview4"
     showgrid="false"
     inkscape:zoom="7.5010172"
     inkscape:cx="83.940643"
     inkscape:cy="60.85176"
     inkscape:window-x="0"
     inkscape:window-y="0"
     inkscape:window-maximized="1"
     inkscape:current-layer="g10"
     inkscape:document-rotation="0" /><g
     id="g10"
     inkscape:groupmode="layer"
     inkscape:label="ink_ext_XXXXXX"
     transform="matrix(1.25,0,0,-1.25,0,114.8625)"><path
       id="path14"
       style="fill:#808080;fill-opacity:1;fill-rule:nonzero;stroke:none;stroke-width:0.125"
       d="m 57.314453,0.00585938 c -1.893187,0 -3.787109,0.72164062 -5.232422,2.16601562 L 41.669922,12.585938 36.552734,17.701172 2.1660156,52.085938 c -2.88817998,2.891125 -2.88817998,7.576218 0,10.464843 L 52.316406,112.69727 c 2.88725,2.88818 7.571391,2.88818 10.462891,0 L 112.69336,62.783203 c 2.88962,-2.889125 2.88962,-7.576594 0,-10.464844 L 62.544922,2.171875 C 61.101609,0.7275 59.207641,0.00585938 57.314453,0.00585938 Z"
       transform="matrix(0.8,0,0,-0.8,0,91.89)" /><path
       id="path2"
       style="fill:#ffffff;fill-rule:evenodd;stroke-width:0.50863;stroke-miterlimit:10;shape-rendering:geometricPrecision"
       d="m 74.62149,58.993565 c 0,-0.208538 -0.06612,-0.396732 -0.193277,-0.569665 -0.132245,-0.167849 -0.269576,-0.254316 -0.427251,-0.254316 -1.266489,-0.122072 -2.309181,-0.528977 -3.112817,-1.225799 -0.808722,-0.691738 -1.637789,-2.019263 -2.497373,-3.972404 L 55.268112,23.399623 c -0.08647,-0.274661 -0.325524,-0.411989 -0.722256,-0.411989 -0.310262,0 -0.54932,0.137328 -0.722255,0.411989 L 46.463722,38.790774 38.000118,23.399623 c -0.172934,-0.274661 -0.41199,-0.411989 -0.722254,-0.411989 -0.376388,0 -0.625618,0.137328 -0.747688,0.411989 L 23.636399,52.971381 c -0.803635,1.836158 -1.653045,3.117905 -2.548235,3.845245 -0.890102,0.727342 -2.136247,1.180022 -3.728259,1.352958 -0.13733,0 -0.269574,0.07122 -0.38656,0.218709 -0.12207,0.142417 -0.183107,0.310266 -0.183107,0.498461 0,0.483196 0.13733,0.722254 0.411991,0.722254 1.149504,0 2.349872,-0.05087 3.606189,-0.152589 1.164762,-0.106809 2.263402,-0.157676 3.290836,-0.157676 1.047777,0 2.283749,0.05087 3.707916,0.157676 1.490284,0.101721 2.812723,0.152589 3.962227,0.152589 0.274662,0 0.411991,-0.239058 0.411991,-0.722254 0,-0.478115 -0.08647,-0.71717 -0.254316,-0.71717 -1.149503,-0.08647 -2.054864,-0.381473 -2.716086,-0.874844 -0.661218,-0.498457 -0.991827,-1.149504 -0.991827,-1.958227 0,-0.411991 0.13733,-0.925705 0.411992,-1.541149 l 10.6558,-24.063295 6.047613,11.423835 -5.635622,11.815477 c -1.012173,2.105732 -1.846327,3.468859 -2.497374,4.079216 -0.651047,0.60527 -1.637789,0.981656 -2.960228,1.118987 -0.122071,0 -0.23397,0.07122 -0.345867,0.218709 -0.111898,0.142417 -0.167848,0.310266 -0.167848,0.498461 0,0.483196 0.116988,0.722254 0.361126,0.722254 1.149504,0 2.202367,-0.05087 3.163681,-0.152589 0.925706,-0.106809 1.91245,-0.157676 2.960226,-0.157676 1.027434,0 2.115902,0.05087 3.265406,0.157676 1.18511,0.101721 2.349872,0.152589 3.499375,0.152589 0.274662,0 0.411992,-0.239058 0.411992,-0.722254 0,-0.478115 -0.08138,-0.71717 -0.254316,-0.71717 -2.299008,-0.157674 -3.448512,-0.808723 -3.448512,-1.958226 0,-0.513718 0.264486,-1.312266 0.79855,-2.390563 l 3.728257,-7.568416 3.707916,6.922455 c 0.513717,0.976571 0.773118,1.800553 0.773118,2.471944 0,1.576753 -1.149505,2.415994 -3.448512,2.522806 -0.20854,0 -0.310266,0.239055 -0.310266,0.71717 0,0.172932 0.05087,0.335696 0.15259,0.488284 0.106809,0.157674 0.208537,0.23397 0.310263,0.23397 0.823982,0 1.836155,-0.05087 3.036524,-0.152589 1.149503,-0.106809 2.095555,-0.157676 2.833069,-0.157676 0.528977,0 1.312266,0.04578 2.3397,0.132243 1.302092,0.116987 2.395647,0.178022 3.27049,0.178022 0.203454,0 0.305179,-0.203454 0.305179,-0.615443 0,-0.549321 -0.188193,-0.823981 -0.56458,-0.823981 -1.337696,-0.137331 -2.415993,-0.508631 -3.2298,-1.108813 -0.81381,-0.600185 -1.831068,-1.963313 -3.046695,-4.08939 l -4.943887,-9.140083 6.693575,-13.636376 9.882684,22.979912 c 0.340781,0.839242 0.513715,1.612359 0.513715,2.314268 0,1.683566 -1.149504,2.57367 -3.448512,2.680482 -0.208538,0 -0.310265,0.239055 -0.310265,0.71717 0,0.483196 0.15259,0.722254 0.462853,0.722254 0.839241,0 1.836156,-0.05087 2.985662,-0.152589 1.063036,-0.106809 1.958225,-0.157676 2.675394,-0.157676 0.757857,0 1.632703,0.05087 2.624531,0.157676 1.03252,0.101721 1.958226,0.152589 2.782208,0.152589 0.239054,0 0.361126,-0.203454 0.361126,-0.615443 z" /></g></svg>
